HIERARCHY
ROOT RootJoint
{
    OFFSET   0.000000   0.000000   0.000000
    CHANNELS 6 Xposition Yposition Zposition Xrotation Yrotation Zrotation
    JOINT pelvis_lowerback
    {
        OFFSET   0.000000   0.093605   0.000000
        CHANNELS 3 Xrotation Yrotation Zrotation
        JOINT lowerback_torso
        {
            OFFSET   0.000000   0.100000   0.000000
            CHANNELS 3 Xrotation Yrotation Zrotation
            JOINT torso_head
            {
                OFFSET   0.000000   0.282350   0.000000
                CHANNELS 3 Xrotation Yrotation Zrotation
                End Site
                {
                    OFFSET   0.000000   0.192650   0.000000
                }
            }
            JOINT rTorso_Clavicle
            {
                OFFSET  -0.001000   0.157500   0.000000
                CHANNELS 3 Xrotation Yrotation Zrotation
                JOINT rShoulder
                {
                    OFFSET  -0.117647   0.000000   0.000000
                    CHANNELS 3 Xrotation Yrotation Zrotation
                    JOINT rElbow
                    {
                        OFFSET  -0.245000   0.000000   0.000000
                        CHANNELS 3 Xrotation Yrotation Zrotation
                        JOINT rWrist
                        {
                            OFFSET  -0.240000   0.000000   0.000000
                            CHANNELS 3 Xrotation Yrotation Zrotation
                            End Site
                            {
                                OFFSET  -0.116353  -0.002500   0.000000
                            }
                        }
                    }
                }
            }
            JOINT lTorso_Clavicle
            {
                OFFSET   0.001000   0.157500   0.000000
                CHANNELS 3 Xrotation Yrotation Zrotation
                JOINT lShoulder
                {
                    OFFSET   0.117647   0.000000   0.000000
                    CHANNELS 3 Xrotation Yrotation Zrotation
                    JOINT lElbow
                    {
                        OFFSET   0.245000   0.000000   0.000000
                        CHANNELS 3 Xrotation Yrotation Zrotation
                        JOINT lWrist
                        {
                            OFFSET   0.240000   0.000000   0.000000
                            CHANNELS 3 Xrotation Yrotation Zrotation
                            End Site
                            {
                                OFFSET   0.116353  -0.002500   0.000000
                            }
                        }
                    }
                }
            }
        }
    }
    JOINT rHip
    {
        OFFSET  -0.100000  -0.051395   0.000000
        CHANNELS 3 Xrotation Yrotation Zrotation
        JOINT rKnee
        {
            OFFSET   0.000000  -0.410000   0.000000
            CHANNELS 3 Xrotation Yrotation Zrotation
            JOINT rAnkle
            {
                OFFSET   0.000000  -0.390000   0.000000
                CHANNELS 3 Xrotation Yrotation Zrotation
                JOINT rToeJoint
                {
                    OFFSET   0.000000  -0.050000   0.130000
                    CHANNELS 3 Xrotation Yrotation Zrotation
                    End Site
                    {
                        OFFSET  -0.010000   0.002000   0.060000
                    }
                }
            }
        }
    }
    JOINT lHip
    {
        OFFSET   0.100000  -0.051395   0.000000
        CHANNELS 3 Xrotation Yrotation Zrotation
        JOINT lKnee
        {
            OFFSET   0.000000  -0.410000   0.000000
            CHANNELS 3 Xrotation Yrotation Zrotation
            JOINT lAnkle
            {
                OFFSET   0.000000  -0.390000   0.000000
                CHANNELS 3 Xrotation Yrotation Zrotation
                JOINT lToeJoint
                {
                    OFFSET   0.000000  -0.050000   0.130000
                    CHANNELS 3 Xrotation Yrotation Zrotation
                    End Site
                    {
                        OFFSET   0.010000   0.002000   0.060000
                    }
                }
            }
        }
    }
}
MOTION
Frames: 11
Frame Time:   0.008333
 -2.376719   0.925631   3.975860   0.000000   0.000000   0.000000   0.000000   0.000000   0.000000   0.000000   0.000000   0.000000   0.000000   0.000000   0.000000   0.000000   0.000000   0.000000   0.000000   0.000000   0.000000   0.000000   0.000000   0.000000   0.000000   0.000000   0.000000   0.000000   0.000000   0.000000   0.000000   0.000000   0.000000   0.000000   0.000000   0.000000   0.000000   0.000000   0.000000   0.000000   0.000000   0.000000   0.000000   0.000000   0.000000   0.000000   0.000000   0.000000   0.000000   0.000000   0.000000   0.000000   0.000000   0.000000   0.000000   0.000000   0.000000   0.000000   0.000000   0.000000   0.000000   0.000000   0.000000
 -2.376996   0.925980   3.971189   1.676900  -0.031752  -0.190153  -2.639323  -0.115138   0.134019   2.354604  -0.447930   0.017073  -1.775662   0.040273   0.050248   0.826071   0.884204   1.045975   1.250521   0.936831   0.915759   0.000110   0.006407  -0.000194   0.231961  -1.803305  -2.646217   0.100767  -0.610229   0.019360  -0.172823   0.942514  -1.971445   0.019049  -1.088547   0.012756  -0.022876   0.965622   2.335400  -2.672644  -0.190591   0.241823   0.466802  -0.000216  -0.000867  -0.607165  -0.257595   0.243383   0.305019  -0.000794  -0.001245  -2.580954  -0.163822   0.247076   0.031038  -0.000015  -0.000051  -0.338991   0.094732  -0.475565   1.317508   0.004815  -0.001171
 -2.377348   0.926620   3.963519   3.220952  -0.068766  -0.415946  -4.660475  -0.245293   0.249044   5.033615  -0.881126   0.082280  -3.508797   0.055462   0.095067   1.611270   2.303339   2.704264   2.412197   2.196075   2.218803   0.003275   0.124642  -0.004475   0.484948  -3.362600  -4.742532   0.211429  -1.582759  -0.521390  -0.308712   1.543065  -4.273171   0.044401  -2.204759   0.032329  -0.046398   1.520428   4.037869  -5.553410  -0.394519   0.516529   0.727248  -0.000304  -0.001163  -1.185098  -0.504548   0.467279   0.532444  -0.001218  -0.001869  -5.450941  -0.348792   0.535332  -0.137880   0.000084   0.000238  -0.664907   0.186930  -0.918812   2.511841   0.007782  -0.002419
 -2.377721   0.927252   3.953870   4.600235  -0.044719  -0.653603  -6.161012  -0.372176   0.342960   7.985159  -1.296163   0.176007  -5.107259   0.064462   0.132488   2.300486   4.126469   4.696386   3.456208   3.676423   3.668308   0.009466   0.333296  -0.012090   0.746255  -4.367801  -6.211762   0.294306  -2.855006  -1.371662  -0.428214   1.831312  -6.688566   0.071251  -3.344298   0.055774  -0.036722   1.554536   5.122051  -8.462629  -0.601847   0.779096   0.842131  -0.000293  -0.001053  -1.730606  -0.738136   0.673009   0.721312  -0.001436  -0.002041  -8.559052  -0.550559   0.819346  -0.110310   0.000053   0.000162  -0.978784   0.275199  -1.332081   3.577680   0.009475  -0.002901
 -2.378128   0.927701   3.943123   5.871529   0.049391  -0.905102  -7.295624  -0.485283   0.424871  11.128154  -1.693041   0.296720  -6.571787   0.071161   0.163617   2.863478   6.263854   6.859240   4.381060   5.304519   5.120740   0.017684   0.610380  -0.021687   1.049419  -4.856291  -7.309637   0.324137  -4.340078  -2.359135  -0.549134   1.877289  -9.091098   0.096630  -4.491942   0.079963   0.026667   1.121300   5.815679 -11.347831  -0.808022   1.019379   0.853907  -0.000241  -0.000844  -2.243844  -0.958191   0.862354   0.882683  -0.001521  -0.001929 -11.786249  -0.765709   1.087924  -0.088255   0.000030   0.000124  -1.271113   0.359843  -1.717510   4.558192   0.010384  -0.002747
 -2.378580   0.927840   3.931955   7.081827   0.247574  -1.182897  -8.174091  -0.587979   0.510909  14.385826  -2.069136   0.462909  -7.915722   0.075705   0.185993   3.259663   8.574845   9.055515   5.189229   7.028779   6.528220   0.026891   0.937811  -0.031859   1.403981  -4.924540  -8.194677   0.284505  -5.964150  -3.390353  -0.684294   1.743902 -11.413030   0.118928  -5.631920   0.102310   0.143661   0.319889   6.288216 -14.167020  -1.012822   1.231337   0.791862  -0.000185  -0.000730  -2.726160  -1.165446   1.036681   1.020424  -0.001513  -0.001613 -15.101572  -0.994894   1.332423  -0.070610   0.000015   0.000114  -1.545252   0.440270  -2.077246   5.452964   0.010758  -0.001871
 -2.379092   0.927567   3.920897   8.263343   0.566639  -1.500397  -8.882350  -0.681810   0.619147  17.701168  -2.418586   0.693010  -9.150264   0.079094   0.200985   3.475022  10.931872  11.208596   5.886439   8.798013   7.876226   0.036125   1.297274  -0.041288   1.803960  -4.678830  -8.945974   0.169673  -7.654495  -4.423195  -0.839392   1.491747 -13.625579   0.137397  -6.748291   0.120887   0.303913  -0.741769   6.635765 -16.886444  -1.213614   1.410381   0.680562  -0.000148  -0.000829  -3.179074  -1.360345   1.197316   1.136569  -0.001441  -0.001180 -18.476416  -1.235890   1.544089  -0.056493   0.000006   0.000120  -1.802135   0.516383  -2.413156   6.268266   0.010788  -0.000379
 -2.379608   0.926493   3.910101   9.777890   0.637518  -1.842532 -10.887085  -0.643393   0.806781  21.994549  -2.545507   0.929068 -10.655070   0.128572   0.217820   3.146088  13.787671  13.184882   5.666069  10.261923   8.626089   0.025644   1.207894  -0.030309   2.254895  -4.319966  -8.760065  -0.779628  -9.414725  -5.625258  -1.670582   0.683048 -15.116632   0.125545  -7.235483   0.108455   0.350415  -1.425899   6.432160 -20.987329  -1.646319   1.609861   3.893281  -0.000133  -0.004851  -3.732377  -1.707621   0.956727   1.090859  -0.001250  -0.000744 -22.995053  -1.447600   1.819498   3.020384  -0.002107   0.002832  -1.938486   0.519908  -2.514157   6.896519   0.008779   0.000109
 -2.380172   0.924478   3.900734  11.179115   0.654305  -2.168647 -13.001423  -0.581216   0.998450  26.173152  -2.618362   1.155768 -12.059901   0.180172   0.248485   2.659196  16.594106  14.924713   5.424147  11.722087   9.182002   0.018554   1.148685  -0.022689   2.674124  -3.950914  -8.739139  -1.763337 -11.184184  -6.708540  -2.505779  -0.166118 -16.438811   0.115141  -7.728500   0.097201   0.370909  -2.121390   6.356530 -24.920903  -2.111035   1.771143   7.488315  -0.000561  -0.010409  -4.213636  -2.037693   0.728266   1.156703  -0.000856  -0.000912 -27.236986  -1.684184   2.105790   6.377975  -0.004636   0.004181  -2.025207   0.521348  -2.608110   7.617587   0.006962   0.000479
 -2.380808   0.921523   3.892552  12.602461   0.671774  -2.485305 -15.224698  -0.530003   1.179769  30.149519  -2.677735   1.378283 -13.393887   0.228429   0.284965   2.069544  19.251333  16.533236   5.175411  13.128483   9.639748   0.013733   1.113651  -0.017372   3.093285  -3.517855  -8.905268  -2.746909 -12.871546  -7.716778  -3.319011  -0.985898 -17.650965   0.105849  -8.211650   0.086772   0.404592  -2.899829   6.382233 -28.720492  -2.583731   1.889159  10.972428  -0.001456  -0.014191  -4.654285  -2.345143   0.512053   1.249570  -0.000494  -0.001147 -31.302144  -1.942121   2.392488   9.642461  -0.007341   0.005831  -2.097151   0.521884  -2.696010   8.311827   0.005312   0.000938
 -2.381502   0.917655   3.885305  14.046944   0.681845  -2.788237 -17.472465  -0.488021   1.344899  33.922270  -2.727124   1.593723 -14.662101   0.272934   0.322992   1.406700  21.733817  18.066849   4.924869  14.459262  10.046569   0.010271   1.090465  -0.013455   3.504676  -3.059864  -9.175363  -3.716907 -14.447141  -8.677658  -4.101690  -1.750684 -18.780583   0.097369  -8.672648   0.077149   0.444037  -3.707973   6.459876 -32.414530  -3.056509   1.964809  14.279063  -0.002547  -0.016613  -5.064053  -2.630423   0.307668   1.340964  -0.000221  -0.001301 -35.202261  -2.213742   2.675955  12.732253  -0.009902   0.007507  -2.162044   0.522647  -2.777916   8.954663   0.003857   0.001385
